<svg width="37" height="34" viewBox="0 0 37 34" fill="none" xmlns="http://www.w3.org/2000/svg">
<g opacity="0.7" filter="url(#filter0_d_2_13865)">
<path fill-rule="evenodd" clip-rule="evenodd" d="M25.8733 4.58491C25.93 4.68396 26.0292 4.75472 26.1567 4.75472C29.5567 4.75472 32.3333 7.5283 32.3333 10.9245V19.3302C32.3333 22.7264 29.5567 25.5 26.1567 25.5H10.1767C6.7625 25.5 4 22.7264 4 19.3302V10.9245C4 7.5283 6.7625 4.75472 10.1767 4.75472C10.29 4.75472 10.4033 4.69811 10.4458 4.58491L10.5308 4.41509C10.5797 4.31228 10.6298 4.20667 10.6807 4.09946C11.0431 3.33611 11.4441 2.49161 11.6925 1.99528C12.3442 0.721698 13.4492 0.0141509 14.8233 0H21.4958C22.87 0.0141509 23.9892 0.721698 24.6408 1.99528C24.864 2.44107 25.2039 3.15916 25.5316 3.85126C25.5992 3.99401 25.6663 4.13566 25.7317 4.27358L25.8733 4.58491ZM24.8391 10.0188C24.8391 10.7264 25.4058 11.2924 26.1141 11.2924C26.8225 11.2924 27.4033 10.7264 27.4033 10.0188C27.4033 9.31129 26.8225 8.73111 26.1141 8.73111C25.4058 8.73111 24.8391 9.31129 24.8391 10.0188ZM15.7157 12.2122C16.3815 11.5471 17.2457 11.1934 18.1665 11.1934C19.0873 11.1934 19.9515 11.5471 20.6032 12.1981C21.2548 12.849 21.609 13.7122 21.609 14.632C21.5948 16.5283 20.0648 18.0707 18.1665 18.0707C17.2457 18.0707 16.3815 17.7169 15.7298 17.066C15.0782 16.4151 14.724 15.5518 14.724 14.632V14.6179C14.7098 13.7264 15.064 12.8632 15.7157 12.2122ZM22.0906 18.566C21.0848 19.5707 19.6965 20.1934 18.1665 20.1934C16.679 20.1934 15.2906 19.6132 14.2281 18.566C13.1798 17.5047 12.599 16.1179 12.599 14.6321C12.5848 13.1604 13.1656 11.7736 14.214 10.7122C15.2765 9.65092 16.679 9.07073 18.1665 9.07073C19.654 9.07073 21.0565 9.65092 22.1048 10.6981C23.1531 11.7594 23.734 13.1604 23.734 14.6321C23.7198 16.1745 23.0965 17.5613 22.0906 18.566Z" fill="#fff"/>
</g>
<defs>
<filter id="filter0_d_2_13865" x="0" y="0" width="36.3333" height="33.5" filterUnits="userSpaceOnUse" color-interpolation-filters="sRGB">
<feFlood flood-opacity="0" result="BackgroundImageFix"/>
<feColorMatrix in="SourceAlpha" type="matrix" values="0 0 0 0 0 0 0 0 0 0 0 0 0 0 0 0 0 0 127 0" result="hardAlpha"/>
<feOffset dy="4"/>
<feGaussianBlur stdDeviation="2"/>
<feComposite in2="hardAlpha" operator="out"/>
<feColorMatrix type="matrix" values="0 0 0 0 0 0 0 0 0 0 0 0 0 0 0 0 0 0 0.25 0"/>
<feBlend mode="normal" in2="BackgroundImageFix" result="effect1_dropShadow_2_13865"/>
<feBlend mode="normal" in="SourceGraphic" in2="effect1_dropShadow_2_13865" result="shape"/>
</filter>
</defs>
</svg>
